<mxfile host="app.diagrams.net" agent="Mozilla/5.0 (Macintosh; Intel Mac OS X 10_15_7) AppleWebKit/537.36 (KHTML, like Gecko) Chrome/131.0.0.0 Safari/537.36" version="25.0.1">
  <diagram name="Page-1" id="vNGc-H9GdI-rKM603p8c">
    <mxGraphModel dx="1418" dy="804" grid="0" gridSize="10" guides="1" tooltips="1" connect="1" arrows="1" fold="1" page="0" pageScale="1" pageWidth="850" pageHeight="1100" math="0" shadow="0">
      <root>
        <mxCell id="0" />
        <mxCell id="1" parent="0" />
        <mxCell id="-CdW8wKlzQTsZnqNdMS--3" value="&lt;font style=&quot;font-size: 500px;&quot; face=&quot;Verdana&quot; color=&quot;#ffffff&quot;&gt;&lt;b style=&quot;&quot;&gt;V&lt;/b&gt;&lt;/font&gt;" style="ellipse;whiteSpace=wrap;html=1;aspect=fixed;fillColor=#000000;" vertex="1" parent="1">
          <mxGeometry x="135" y="191" width="1000" height="1000" as="geometry" />
        </mxCell>
        <mxCell id="niVBn90_WJ0tKgEeXHRU-3" value="" style="rounded=0;whiteSpace=wrap;html=1;strokeColor=none;fillColor=#000000;" parent="1" vertex="1">
          <mxGeometry x="672" y="539" width="195" height="27" as="geometry" />
        </mxCell>
        <mxCell id="gNAvM7fKQvTQZpTpwVMC-2" value="" style="rounded=0;whiteSpace=wrap;html=1;strokeColor=none;fillColor=#000000;" parent="1" vertex="1">
          <mxGeometry x="662" y="579" width="195" height="27" as="geometry" />
        </mxCell>
        <mxCell id="gNAvM7fKQvTQZpTpwVMC-3" value="" style="rounded=0;whiteSpace=wrap;html=1;strokeColor=none;fillColor=#000000;" parent="1" vertex="1">
          <mxGeometry x="653" y="619" width="195" height="27" as="geometry" />
        </mxCell>
        <mxCell id="-CdW8wKlzQTsZnqNdMS--1" value="" style="rounded=0;whiteSpace=wrap;html=1;strokeColor=none;fillColor=#000000;rotation=-71;" vertex="1" parent="1">
          <mxGeometry x="509" y="811" width="195" height="27" as="geometry" />
        </mxCell>
      </root>
    </mxGraphModel>
  </diagram>
</mxfile>
